<svg width="45" height="45" viewBox="0 0 45 45" fill="none" xmlns="http://www.w3.org/2000/svg">
<path fill-rule="evenodd" clip-rule="evenodd" d="M22.1714 44.671C34.4164 44.671 44.3429 34.7445 44.3429 22.4996C44.3429 10.2546 34.4164 0.328125 22.1714 0.328125C9.92649 0.328125 0 10.2546 0 22.4996C0 34.7445 9.92649 44.671 22.1714 44.671ZM17.8355 36.1289C17.8169 36.0841 17.8074 36.036 17.8074 35.9875L17.8046 21.455H15.1505C15.0525 21.455 14.9585 21.4161 14.8892 21.3468C14.8199 21.2775 14.781 21.1835 14.781 21.0855V16.7085C14.781 16.6105 14.8199 16.5165 14.8892 16.4472C14.9585 16.3779 15.0525 16.339 15.1505 16.339H17.8083V12.119C17.8083 10.707 18.3692 9.35288 19.3676 8.35445C20.3661 7.35602 21.7202 6.79511 23.1322 6.79511H28.142C28.24 6.79511 28.334 6.83405 28.4033 6.90335C28.4726 6.97264 28.5116 7.06663 28.5116 7.16464V11.5463C28.5116 11.6443 28.4726 11.7383 28.4033 11.8076C28.334 11.8769 28.24 11.9158 28.142 11.9158H25.1766C25.0035 11.9158 24.8321 11.9499 24.6723 12.0162C24.5124 12.0824 24.3671 12.1795 24.2448 12.302C24.1224 12.4244 24.0254 12.5697 23.9593 12.7297C23.8931 12.8896 23.8591 13.061 23.8592 13.2341V16.339H28.0709C28.1224 16.3388 28.1735 16.3493 28.2207 16.37C28.2679 16.3907 28.3103 16.421 28.3451 16.459C28.3799 16.497 28.4063 16.5419 28.4227 16.5908C28.4392 16.6396 28.4452 16.6914 28.4404 16.7427L28.0709 21.1179C28.0639 21.211 28.0219 21.298 27.9533 21.3614C27.8848 21.4248 27.7948 21.4599 27.7014 21.4597H23.8537V35.9875C23.8537 36.0855 23.8148 36.1795 23.7455 36.2488C23.6762 36.3181 23.5822 36.357 23.4842 36.357H18.1769C18.1284 36.357 18.0803 36.3475 18.0355 36.3289C17.9907 36.3103 17.9499 36.2831 17.9156 36.2488C17.8813 36.2145 17.8541 36.1737 17.8355 36.1289Z" fill="#9B7114"/>
</svg>
