<svg width="161" height="76" viewBox="0 0 161 76" fill="none" xmlns="http://www.w3.org/2000/svg">
<g clip-path="url(#clip0_54_47)">
<path d="M12.9079 60.3333C12.9139 60.893 12.8308 61.4527 12.6607 61.9863C12.5222 62.4216 12.3125 62.8288 12.0395 63.1919C11.6359 63.7214 11.1018 64.1327 10.4925 64.3874C9.55682 64.7405 8.74574 64.8488 7.41637 64.8889H0L0.0731944 64.8207C0.555882 64.3694 0.828877 63.7355 0.828877 63.0695V49.3888C0.828877 48.7228 0.555882 48.0889 0.0731944 47.6376L0 47.5694H6.64487C7.21855 47.5754 7.78828 47.6496 8.34614 47.7901C8.79322 47.9024 9.22645 48.0669 9.63595 48.2795C10.1285 48.5443 10.5538 48.9174 10.8862 49.3728C10.993 49.5192 11.0899 49.6737 11.177 49.8341C11.2719 50.0167 11.353 50.2072 11.4223 50.3998C11.4994 50.6205 11.5568 50.8491 11.5944 51.0798C11.6201 51.2062 11.6359 51.3326 11.6419 51.461C11.6458 51.5272 11.6498 51.5934 11.6537 51.6616C11.6577 51.7298 11.6597 51.8 11.6597 51.8521C11.6597 51.9043 11.6597 51.9705 11.6537 52.0427C11.6518 52.1109 11.6478 52.1771 11.6419 52.2433C11.6379 52.3095 11.632 52.3737 11.628 52.4379C11.6181 52.5021 11.6063 52.5642 11.5964 52.6244C11.5726 52.7468 11.5568 52.8671 11.5252 52.9795L11.4262 53.3045C11.357 53.499 11.2759 53.6876 11.1809 53.8721C11.0939 54.0326 10.997 54.1871 10.8901 54.3335C10.5598 54.7869 10.1305 55.16 9.6399 55.4248C9.30756 55.5973 8.95939 55.7357 8.60133 55.84C8.68837 55.854 8.77542 55.8721 8.86048 55.8921C8.89213 55.8962 8.92181 55.9002 8.95346 55.9042C9.47967 55.9704 9.99598 56.0988 10.4925 56.2853C11.1077 56.53 11.6458 56.9393 12.0514 57.4668C12.178 57.6413 12.2927 57.8239 12.3956 58.0145C12.5064 58.2291 12.5974 58.4518 12.6705 58.6824C12.8367 59.216 12.9178 59.7737 12.9119 60.3354L12.9079 60.3333ZM2.59148 55.7758H6.67652C7.19283 55.7738 7.69926 55.6334 8.14436 55.3686C8.46483 55.162 8.74574 54.8972 8.97522 54.5883C9.21458 54.2613 9.41241 53.9062 9.56473 53.5291C9.61616 53.4268 9.64188 53.3045 9.69134 53.1901C9.72497 53.0677 9.76651 52.9414 9.79618 52.805C9.81003 52.7368 9.8219 52.6645 9.8397 52.5923C9.85553 52.5201 9.85751 52.4419 9.86938 52.3657C9.87531 52.3255 9.87927 52.2854 9.8852 52.2473C9.8852 52.2072 9.8852 52.1651 9.88916 52.1249C9.88916 52.0828 9.89114 52.0387 9.89509 51.9986C9.89707 51.9584 9.89905 51.9123 9.89905 51.8501C9.89905 51.7879 9.89707 51.7458 9.89509 51.7037C9.89509 51.6616 9.89114 51.6194 9.88916 51.5773C9.88916 51.4971 9.88322 51.4148 9.86938 51.3366C9.85355 51.1882 9.82981 51.0417 9.79816 50.8973C9.76651 50.7609 9.72892 50.6325 9.69331 50.5121C9.64386 50.3958 9.61814 50.2754 9.56671 50.1731C9.41241 49.796 9.21458 49.439 8.97324 49.112C8.74377 48.8011 8.4589 48.5363 8.13447 48.3277C7.68343 48.0609 7.1691 47.9224 6.64882 47.9245H2.59148V55.7778V55.7758ZM11.0247 61.5008C11.1077 61.1157 11.1493 60.7225 11.1434 60.3293C11.1434 60.1909 11.1335 60.1007 11.1315 59.9903C11.1315 59.888 11.1256 59.7877 11.1117 59.6874C11.0998 59.5911 11.0919 59.4969 11.0801 59.4086C11.0682 59.3203 11.0425 59.2381 11.0286 59.1558C10.997 59.0034 10.9574 58.8529 10.906 58.7045C10.8585 58.5661 10.7991 58.4437 10.7517 58.3214C10.5499 57.9021 10.2729 57.523 9.93664 57.204C9.60429 56.8931 9.22052 56.6444 8.80113 56.4679C8.22151 56.2372 7.60431 56.1248 6.98116 56.1349H2.59346V64.5278H7.02468C8.55583 64.4977 9.31943 64.0404 9.94455 63.4707C10.2729 63.1457 10.544 62.7646 10.7438 62.3453C10.8684 62.0765 10.9653 61.7937 11.0266 61.5048L11.0247 61.5008Z" fill="url(#paint0_linear_54_47)"/>
<path d="M27.1116 61.7636L27.0602 61.9341C27.0522 61.9622 26.1561 64.7385 22.3005 64.8207V64.8247H21.9484V64.8187C21.8396 64.8147 21.7288 64.8067 21.622 64.7946C21.1017 64.7425 20.5874 64.6221 20.0968 64.4396C19.5805 64.253 19.0919 63.9902 18.6487 63.6633C18.1205 63.2781 17.6794 62.7887 17.349 62.221C16.3382 60.4297 16.3382 58.2291 17.349 56.4358C17.6794 55.8681 18.1225 55.3786 18.6487 54.9935C19.0919 54.6665 19.5805 54.4037 20.0968 54.2172C20.5874 54.0346 21.0998 53.9143 21.622 53.8621C21.7902 53.8421 21.9583 53.832 22.1265 53.832H22.3025V53.836C22.9692 53.8621 23.6279 54.0005 24.2491 54.2493C25.4815 54.7227 26.435 55.7377 26.8426 57.0075C26.8762 57.1098 26.9059 57.2141 26.9316 57.3224C26.9355 57.3365 26.9395 57.3505 26.9395 57.3645H18.6586C18.4667 58.0024 18.3639 58.6624 18.356 59.3304C18.3639 60.0826 18.4925 60.8288 18.7378 61.539C18.9019 62.0224 19.1255 62.4818 19.4024 62.909C19.6497 63.3082 19.9741 63.6532 20.3579 63.922C20.7971 64.2229 21.3035 64.4035 21.8317 64.4516C21.9306 64.4596 22.0275 64.4697 22.1284 64.4697H22.1621C25.8693 64.4536 26.6962 61.9381 26.7278 61.8298L26.7812 61.6593L27.1195 61.7656L27.1116 61.7636ZM19.3925 55.7517C19.1393 56.1449 18.9336 56.5662 18.7753 57.0055H25.2639C25.2204 56.6825 25.1235 56.3676 24.9791 56.0767C24.7338 55.5792 24.3757 55.15 23.9326 54.823C23.4123 54.4258 22.7813 54.2031 22.1304 54.1891H22.081C21.4578 54.1971 20.8505 54.3877 20.3342 54.7427C19.9544 55.0115 19.6339 55.3546 19.3906 55.7517H19.3925Z" fill="url(#paint1_linear_54_47)"/>
<path d="M33.1314 54.1309V60.9612H33.1333C33.1393 61.4487 33.1729 61.9361 33.2362 62.4196C33.2738 62.7405 33.3351 63.0575 33.4182 63.3684C33.4874 63.6532 33.6279 63.914 33.8277 64.1266C34.1106 64.4095 34.5003 64.5539 34.8959 64.5258V64.8829C34.4212 64.9009 33.9503 64.8087 33.5151 64.6141C33.161 64.4596 32.8326 64.245 32.5478 63.9802C32.2174 63.6773 31.9523 63.3082 31.7664 62.897C31.4993 62.2872 31.3628 61.6272 31.3707 60.9612H31.3688V54.1289H30.0374C31.6497 53.4369 33.1314 50.2755 33.1314 50.2755V53.7718H35.1294V54.1289H33.1314V54.1309Z" fill="url(#paint2_linear_54_47)"/>
<path d="M45.4201 64.8849L45.426 63.559C45.1016 63.8097 44.7554 64.0304 44.3914 64.2189C44.0571 64.4055 43.6991 64.5459 43.3271 64.6362C43.0858 64.7064 42.8405 64.7625 42.5932 64.8027C42.0413 64.8949 41.4795 64.903 40.9236 64.8307C40.3519 64.7605 39.8019 64.5599 39.3173 64.243L39.1254 64.1066C39.0641 64.0544 39.0047 63.9983 38.9434 63.9421C38.8168 63.8258 38.704 63.6954 38.6031 63.5529C38.4963 63.4005 38.4033 63.238 38.3262 63.0675C38.2609 62.907 38.2075 62.7425 38.1659 62.574C38.0018 61.9241 38.0512 61.236 38.3044 60.6162C38.5359 60.0606 38.9098 59.5771 39.3845 59.216C39.8514 58.873 40.3657 58.6022 40.9117 58.4096C41.4735 58.193 42.0472 58.0145 42.6328 57.8781C45.2065 57.2542 45.3014 56.3896 45.3014 56.3816H45.3252C45.3014 56.2512 45.2737 56.1289 45.2421 56.0185C45.1629 55.7096 45.0462 55.4127 44.8899 55.1359C44.7356 54.8671 44.524 54.6384 44.2688 54.4659C43.9048 54.2372 43.4834 54.1209 43.0561 54.1329H43.0462C42.5161 54.1329 41.9978 54.3034 41.5665 54.6164C40.888 55.168 40.4745 55.9905 40.435 56.8731C40.4211 57.0336 40.1818 57.1158 39.8554 57.0957C39.6496 57.0897 39.4439 57.0576 39.2461 57.0035C38.9315 56.9072 38.7515 56.6344 38.8504 56.4157C39.0878 55.8701 39.4201 55.3706 39.8316 54.9433C40.2332 54.5261 40.7297 54.2132 41.2757 54.0306C41.8534 53.8541 42.4528 53.7678 43.0541 53.7739C43.5329 53.7739 44.0096 53.824 44.4785 53.9243C44.8682 54.0066 45.2421 54.145 45.5922 54.3355C46.0156 54.5742 46.3716 54.9193 46.6288 55.3365C47.0047 55.9664 47.1966 56.6905 47.1847 57.4247V63.0695C47.1847 63.7335 47.4597 64.3694 47.9404 64.8207L48.0116 64.8869H45.4162L45.4201 64.8849ZM40.0097 51.3687L39.7406 51.138L41.2579 49.1742L42.0176 48.1913C42.2985 47.8302 42.4073 47.6757 43.0462 46.8854C43.6852 47.6757 43.794 47.8322 44.0749 48.1913L44.8346 49.1742L46.3519 51.138L46.0828 51.3687L44.429 49.5192L43.6021 48.5945C43.4162 48.3899 43.1353 48.0689 43.0522 47.9846C43.0502 47.9887 43.0482 47.9907 43.0462 47.9947C43.0423 47.9907 43.0423 47.9887 43.0403 47.9846C42.9572 48.0689 42.6763 48.3899 42.4904 48.5945L41.6635 49.5192L40.0097 51.3687ZM45.428 63.0876V57.4227C45.426 57.2462 45.4162 57.0857 45.4043 56.9353C45.0818 57.3184 44.3578 57.8259 42.7238 58.2231C41.4795 58.5601 40.6031 59.2181 40.156 59.9542C39.9543 60.2872 39.8277 60.6623 39.7901 61.0495C39.7564 61.4166 39.7881 61.7857 39.883 62.1407C39.8989 62.237 39.9365 62.3253 39.9582 62.4156C39.9938 62.4797 39.9978 62.55 40.0413 62.6182C40.0749 62.6924 40.1125 62.7626 40.158 62.8288L40.2273 62.9371L40.3123 63.0414C40.5715 63.3523 40.888 63.6111 41.2421 63.8037C41.6575 64.0364 42.1145 64.1768 42.5853 64.2189C43.1531 64.2711 43.7228 64.1607 44.2312 63.9C44.6644 63.6853 45.068 63.4125 45.428 63.0876Z" fill="url(#paint3_linear_54_47)"/>
<path d="M60.1104 58.0205V58.0085C60.1084 55.9363 59.5486 54.3556 58.1618 54.3556C57.234 54.3717 56.3458 54.7428 55.6772 55.3947C55.1826 55.8561 54.7494 56.3796 54.3874 56.9513C54.4072 57.1238 54.419 57.2984 54.421 57.4729V63.0655C54.421 63.7315 54.696 64.3654 55.1767 64.8167L55.2479 64.8829H51.8315L51.9027 64.8167C52.3854 64.3654 52.6584 63.7315 52.6584 63.0655V57.4709C52.6564 57.0035 52.6089 56.5381 52.5179 56.0807C52.4626 55.7738 52.3755 55.4749 52.2548 55.1881C51.9917 54.5161 51.335 54.0888 50.6228 54.1269V53.7699C51.0877 53.7699 51.5506 53.8361 51.9977 53.9685C52.3676 54.0808 52.7177 54.2473 53.0382 54.4659C53.4161 54.7307 53.7266 55.0818 53.9462 55.489C54.1104 55.7899 54.2311 56.1128 54.3043 56.4498C55.2242 55.1239 56.7316 53.7699 58.4269 53.7699C58.696 53.7638 58.965 53.7819 59.2301 53.826C59.4595 53.8682 59.6831 53.9364 59.8967 54.0347C60.2766 54.2152 60.6168 54.474 60.8898 54.7969C61.4358 55.4368 61.8552 56.3656 61.873 58.0185V63.0655C61.873 63.7315 62.148 64.3654 62.6287 64.8167L62.6999 64.8829H59.2835L59.3547 64.8167C59.8374 64.3654 60.1104 63.7315 60.1104 63.0655V58.0185V58.0205Z" fill="url(#paint4_linear_54_47)"/>
<path d="M67.2993 57.4729C67.2973 57.0055 67.2498 56.5401 67.1588 56.0827C67.1034 55.7758 67.0164 55.4769 66.8957 55.1901C66.6326 54.5181 65.9758 54.0908 65.2637 54.1289V53.7719C65.7286 53.7719 66.1915 53.8381 66.6385 53.9704C67.0085 54.0828 67.3586 54.2493 67.6791 54.4679C68.0569 54.7327 68.3675 55.0838 68.5871 55.491C68.9095 56.0988 69.0737 56.7808 69.0638 57.4709V63.0655C69.0638 63.7315 69.3388 64.3654 69.8195 64.8167L69.8907 64.8829H66.4743L66.5456 64.8167C67.0283 64.3654 67.3012 63.7315 67.3012 63.0655V57.4709L67.2993 57.4729ZM67.2993 52.8772C67.2993 52.3837 67.6949 51.9825 68.1816 51.9825C68.6682 51.9825 69.0638 52.3817 69.0638 52.8772C69.0638 53.3727 68.6702 53.7719 68.1816 53.7719C67.6929 53.7719 67.2993 53.3707 67.2993 52.8772Z" fill="url(#paint5_linear_54_47)"/>
<path d="M80.769 64.8849L80.775 63.559C80.4506 63.8097 80.1044 64.0304 79.7404 64.2189C79.406 64.4055 79.048 64.5459 78.6781 64.6362C78.4367 64.7064 78.1914 64.7625 77.9441 64.8026C77.3922 64.8949 76.8304 64.9029 76.2745 64.8307C75.7028 64.7605 75.1529 64.5599 74.6682 64.243L74.4763 64.1066C74.415 64.0544 74.3556 63.9983 74.2943 63.9421C74.1677 63.8257 74.053 63.6954 73.9541 63.5529C73.8472 63.4005 73.7543 63.238 73.6791 63.0675C73.6138 62.907 73.5604 62.7425 73.5188 62.574C73.3547 61.9241 73.4021 61.236 73.6553 60.6162C73.8868 60.0605 74.2607 59.5771 74.7374 59.216C75.2043 58.873 75.7186 58.6022 76.2646 58.4096C76.8264 58.193 77.4001 58.0145 77.9857 57.8781C80.5594 57.2542 80.6543 56.3896 80.6543 56.3816H80.678C80.6543 56.2512 80.6266 56.1289 80.595 56.0185C80.5158 55.7096 80.3971 55.4127 80.2428 55.1359C80.0885 54.8671 79.8769 54.6384 79.6217 54.4659C79.2577 54.2372 78.8363 54.1209 78.409 54.1329H78.3991C77.869 54.1329 77.3507 54.3034 76.9194 54.6164C76.2409 55.168 75.8274 55.9904 75.7879 56.8731C75.774 57.0335 75.5347 57.1158 75.2082 57.0957C75.0025 57.0897 74.7988 57.0576 74.599 57.0035C74.2844 56.9072 74.1044 56.6344 74.2033 56.4157C74.4407 55.8701 74.773 55.3706 75.1845 54.9433C75.5861 54.5261 76.0826 54.2132 76.6286 54.0306C77.2063 53.8541 77.8057 53.7678 78.407 53.7739C78.8858 53.7739 79.3625 53.824 79.8314 53.9243C80.2191 54.0065 80.595 54.145 80.9451 54.3355C81.3684 54.5742 81.7245 54.9193 81.9817 55.3365C82.3576 55.9664 82.5495 56.6905 82.5376 57.4247V63.0695C82.5376 63.7335 82.8126 64.3694 83.2933 64.8207L83.3645 64.8869H80.769V64.8849ZM79.5782 63.9C80.0114 63.6853 80.4149 63.4125 80.777 63.0896V57.4247C80.775 57.2482 80.7651 57.0877 80.7532 56.9373C80.4308 57.3204 79.7067 57.8279 78.0727 58.2251C76.8284 58.5621 75.9521 59.2201 75.505 59.9562C75.3032 60.2892 75.1766 60.6643 75.139 61.0515C75.1054 61.4186 75.137 61.7877 75.232 62.1427C75.2478 62.239 75.2854 62.3253 75.3072 62.4176C75.3428 62.4817 75.3467 62.552 75.3902 62.6202C75.4239 62.6944 75.4615 62.7646 75.507 62.8308L75.5762 62.9391L75.6613 63.0434C75.9204 63.3543 76.2369 63.6131 76.5891 63.8057C77.0045 64.0384 77.4615 64.1788 77.9323 64.2209C78.5 64.2731 79.0697 64.1607 79.5782 63.902V63.9Z" fill="url(#paint6_linear_54_47)"/>
<path d="M106.783 60.1448C106.965 61.7556 106.146 63.3122 104.725 64.0564C104.239 64.3212 103.72 64.5198 103.184 64.6462C102.775 64.7465 102.357 64.8127 101.936 64.8468L101.869 64.8528C101.802 64.8568 101.736 64.8628 101.667 64.8668C101.515 64.8769 101.362 64.8829 101.216 64.8829H101.198C100.539 64.8869 99.8807 64.8327 99.2318 64.7164C98.0014 64.4897 96.8579 63.92 95.9302 63.0695C95.8392 62.9612 95.7976 62.8208 95.8174 62.6803C95.8352 62.5399 95.9104 62.4135 96.0251 62.3333C96.1794 62.1949 96.3495 62.0765 96.5335 61.9823C96.8283 61.8338 97.0993 61.8298 97.1903 61.9923C97.7303 62.893 98.5058 63.6211 99.4336 64.0966C99.9855 64.3814 100.595 64.5298 101.212 64.5318H101.281C101.904 64.5298 102.526 64.4315 103.119 64.239C103.594 64.0905 104.041 63.8619 104.44 63.559C105.087 63.0876 105.505 62.3574 105.592 61.555C105.633 61.1638 105.598 60.7687 105.489 60.3915C105.43 60.1909 105.349 59.9964 105.248 59.8138C105.194 59.7175 105.137 59.6273 105.072 59.539C105.008 59.4547 104.939 59.3745 104.864 59.3003C104.417 58.9071 103.916 58.5781 103.38 58.3234C102.706 57.9643 101.991 57.6073 101.101 57.184C100.282 56.8069 99.491 56.3676 98.7333 55.8741C98.0924 55.4569 97.5187 54.9393 97.036 54.3395C96.6186 53.82 96.3298 53.2082 96.1913 52.5542C96.0845 51.9966 96.1082 51.4209 96.2625 50.8732C96.5414 49.8943 97.1586 49.0518 97.9994 48.4982C98.8639 47.9164 100.013 47.5734 101.493 47.5714H101.505C102.169 47.5714 102.832 47.6617 103.473 47.8422C104.071 48.0167 104.63 48.3036 105.123 48.6847C105.631 49.0759 106.078 49.5393 106.45 50.0648C106.516 50.1892 106.528 50.3356 106.482 50.47C106.437 50.6044 106.338 50.7128 106.211 50.7689C106.031 50.8712 105.837 50.9475 105.637 50.9996C105.321 51.0879 105.06 51.0377 104.998 50.8572C104.686 49.8723 104.057 49.0217 103.21 48.444C102.696 48.113 102.1 47.9365 101.491 47.9305H101.487C100.067 47.9305 99.0103 48.3598 98.3436 48.9615C97.7343 49.4991 97.3584 50.2574 97.2991 51.0738C97.2496 51.8461 97.4791 52.5763 98.1992 53.3165C98.6324 53.7438 99.1171 54.1129 99.6413 54.4178C100.247 54.7869 100.981 55.1499 101.857 55.5712C102.294 55.7818 102.713 55.9884 103.109 56.1971C103.305 56.2994 103.503 56.4097 103.681 56.512L104.203 56.8149C104.886 57.186 105.497 57.6775 106.013 58.2632C106.134 58.4137 106.243 58.5741 106.336 58.7446C106.419 58.8991 106.492 59.0576 106.553 59.2221C106.666 59.523 106.741 59.8359 106.779 60.1548L106.783 60.1448Z" fill="url(#paint7_linear_54_47)"/>
<path d="M120.85 56.4177C121.857 58.2231 121.857 60.4337 120.85 62.239C120.52 62.8107 120.076 63.3082 119.55 63.6974C119.105 64.0304 118.616 64.2972 118.096 64.4877C117.602 64.6763 117.085 64.7986 116.561 64.8528C116.395 64.8729 116.229 64.8829 116.063 64.8829H116.045C115.879 64.8829 115.71 64.8729 115.546 64.8528C115.022 64.7986 114.506 64.6763 114.011 64.4877C113.491 64.2972 113.002 64.0304 112.557 63.6974C112.029 63.3062 111.586 62.8107 111.257 62.239C110.251 60.4337 110.251 58.2231 111.257 56.4177C111.588 55.846 112.031 55.3485 112.557 54.9594C113.002 54.6264 113.491 54.3596 114.011 54.167C114.506 53.9805 115.02 53.8581 115.544 53.804C115.712 53.7839 115.883 53.7739 116.053 53.7739H116.055C116.225 53.7739 116.395 53.7839 116.563 53.804C117.087 53.8581 117.604 53.9805 118.096 54.167C118.616 54.3576 119.105 54.6244 119.55 54.9594C120.078 55.3506 120.521 55.846 120.852 56.4177H120.85ZM119.459 61.561C119.968 60.1167 119.968 58.54 119.459 57.0957C119.295 56.6083 119.071 56.1429 118.793 55.7096C118.545 55.3044 118.219 54.9574 117.833 54.6846C117.307 54.3235 116.688 54.1309 116.051 54.1289H116.013C115.386 54.1369 114.773 54.3315 114.254 54.6906C113.873 54.9614 113.55 55.3084 113.307 55.7096C113.032 56.1409 112.808 56.6063 112.644 57.0917C112.136 58.536 112.136 60.1147 112.644 61.557C112.808 62.0445 113.032 62.5098 113.311 62.9431C113.558 63.3483 113.885 63.6954 114.27 63.9682C114.795 64.3272 115.414 64.5218 116.049 64.5218H116.09C116.717 64.5138 117.331 64.3192 117.849 63.9602C118.231 63.6894 118.553 63.3423 118.796 62.9411C119.071 62.5098 119.295 62.0445 119.459 61.559V61.561Z" fill="url(#paint8_linear_54_47)"/>
<path d="M135.443 64.8187L135.514 64.8849H132.925V63.6833C132.191 64.4235 131.194 64.8347 130.157 64.8247H130.011C129.528 64.8287 129.048 64.7585 128.583 64.6201C128.197 64.5017 127.835 64.3172 127.511 64.0745C127.131 63.7836 126.822 63.4065 126.612 62.9712C126.318 62.3373 126.169 61.6432 126.179 60.9411V57.4728C126.173 57.0055 126.128 56.5401 126.035 56.0827C125.979 55.7758 125.892 55.4769 125.772 55.1901C125.509 54.5181 124.852 54.0908 124.138 54.1289V53.7718C124.603 53.7718 125.065 53.838 125.513 53.9704C125.882 54.0828 126.233 54.2493 126.553 54.4679C126.931 54.7327 127.242 55.0837 127.461 55.4909C127.784 56.0988 127.948 56.7808 127.938 57.4708H127.94V60.9411C127.94 61.4426 127.981 61.9441 128.061 62.4416C128.108 62.7606 128.191 63.0755 128.31 63.3764C128.419 63.6592 128.599 63.908 128.832 64.0985C129.115 64.3112 129.453 64.4355 129.803 64.4556C129.871 64.4596 129.936 64.4656 130.005 64.4656H130.151C131.226 64.4797 132.246 63.9902 132.919 63.1397V55.5852C132.919 54.9192 132.646 54.2854 132.163 53.834L132.092 53.7678H135.509L135.437 53.834C134.955 54.2854 134.682 54.9192 134.682 55.5852V63.0635C134.682 63.7294 134.957 64.3633 135.437 64.8147L135.443 64.8187Z" fill="url(#paint9_linear_54_47)"/>
<path d="M147.619 62.9732V64.8829H138.83L145.103 54.1309H141.831C141.176 54.1309 140.551 54.4077 140.106 54.8952L139.39 55.6815V53.7719H147.362L141.089 64.5238H145.176C145.831 64.5238 146.456 64.247 146.901 63.7575L147.617 62.9712L147.619 62.9732Z" fill="url(#paint10_linear_54_47)"/>
<path d="M158.405 64.8849L158.41 63.559C158.086 63.8097 157.74 64.0304 157.376 64.2189C157.042 64.4055 156.683 64.5459 156.314 64.6362C156.072 64.7064 155.827 64.7625 155.58 64.8026C155.028 64.8949 154.466 64.9029 153.91 64.8307C153.338 64.7605 152.788 64.5599 152.304 64.243L152.112 64.1066C152.05 64.0544 151.991 63.9983 151.93 63.9421C151.803 63.8257 151.688 63.6954 151.59 63.5529C151.483 63.4005 151.39 63.238 151.315 63.0675C151.249 62.907 151.196 62.7425 151.154 62.574C150.99 61.9241 151.038 61.236 151.291 60.6162C151.522 60.0605 151.896 59.5771 152.373 59.216C152.84 58.873 153.354 58.6022 153.9 58.4096C154.462 58.193 155.036 58.0145 155.621 57.8781C158.195 57.2542 158.29 56.3896 158.29 56.3816H158.314C158.29 56.2512 158.262 56.1289 158.23 56.0185C158.151 55.7096 158.033 55.4127 157.878 55.1359C157.724 54.8671 157.512 54.6384 157.257 54.4659C156.893 54.2372 156.472 54.1209 156.045 54.1329H156.035C155.504 54.1329 154.986 54.3034 154.555 54.6164C153.876 55.168 153.463 55.9904 153.423 56.8731C153.41 57.0335 153.17 57.1158 152.844 57.0957C152.638 57.0897 152.434 57.0576 152.234 57.0035C151.92 56.9072 151.74 56.6344 151.839 56.4157C152.076 55.8701 152.409 55.3706 152.82 54.9433C153.222 54.5261 153.718 54.2132 154.264 54.0306C154.842 53.8541 155.441 53.7678 156.043 53.7739C156.521 53.7739 156.998 53.824 157.467 53.9243C157.855 54.0065 158.23 54.145 158.581 54.3355C159.004 54.5742 159.36 54.9193 159.617 55.3365C159.993 55.9664 160.185 56.6905 160.173 57.4247V63.0695C160.173 63.7335 160.448 64.3694 160.929 64.8207L161 64.8869H158.405V64.8849ZM157.214 63.9C157.647 63.6853 158.05 63.4125 158.412 63.0896V57.4247C158.41 57.2482 158.401 57.0877 158.389 56.9373C158.066 57.3204 157.342 57.8279 155.708 58.2251C154.464 58.5621 153.588 59.2201 153.14 59.9562C152.939 60.2892 152.812 60.6643 152.775 61.0515C152.741 61.4186 152.773 61.7877 152.867 62.1427C152.883 62.239 152.921 62.3253 152.943 62.4176C152.978 62.4817 152.982 62.552 153.026 62.6202C153.059 62.6944 153.097 62.7646 153.142 62.8308L153.212 62.9391L153.297 63.0434C153.556 63.3543 153.872 63.6131 154.225 63.8057C154.64 64.0384 155.097 64.1788 155.568 64.2209C156.136 64.2731 156.705 64.1607 157.214 63.902V63.9Z" fill="url(#paint11_linear_54_47)"/>
<path d="M1.24826 42.6327C0.858551 42.4161 0.553904 42.1152 0.332342 41.73C0.110781 41.3449 0 40.9136 0 40.4362C0 39.9588 0.110781 39.5275 0.332342 39.1423C0.553904 38.7572 0.860529 38.4563 1.25222 38.2396C1.64391 38.023 2.08109 37.9147 2.56576 37.9147C2.92975 37.9147 3.26407 37.9769 3.57268 38.0992C3.8793 38.2216 4.14043 38.4021 4.35606 38.6388L4.02767 38.9718C3.64587 38.5807 3.16319 38.3841 2.58159 38.3841C2.19385 38.3841 1.84371 38.4743 1.52719 38.6529C1.21067 38.8334 0.961418 39.0781 0.783378 39.3891C0.603359 39.7 0.514339 40.051 0.514339 40.4382C0.514339 40.8253 0.603359 41.1744 0.783378 41.4873C0.963397 41.7982 1.21067 42.045 1.52719 42.2235C1.84371 42.404 2.19583 42.4923 2.58159 42.4923C3.16912 42.4923 3.65181 42.2937 4.02767 41.8965L4.35606 42.2295C4.14241 42.4662 3.8793 42.6467 3.5707 42.7711C3.2621 42.8955 2.92382 42.9597 2.55983 42.9597C2.07516 42.9597 1.63797 42.8514 1.25024 42.6347L1.24826 42.6327Z" fill="white"/>
<path d="M6.87431 42.6308C6.48065 42.4101 6.17402 42.1092 5.95246 41.7281C5.7309 41.3449 5.62012 40.9157 5.62012 40.4382C5.62012 39.9608 5.7309 39.5315 5.95246 39.1484C6.17402 38.7653 6.48065 38.4644 6.87431 38.2457C7.26798 38.0271 7.70715 37.9167 8.19181 37.9167C8.67648 37.9167 9.11367 38.0251 9.5014 38.2417C9.89111 38.4584 10.1977 38.7613 10.4213 39.1444C10.6448 39.5295 10.7576 39.9608 10.7576 40.4382C10.7576 40.9157 10.6448 41.3469 10.4213 41.7321C10.1977 42.1172 9.89111 42.4181 9.5014 42.6348C9.11169 42.8514 8.67648 42.9597 8.19181 42.9597C7.70715 42.9597 7.26798 42.8494 6.87431 42.6308ZM9.24027 42.2276C9.55283 42.051 9.79615 41.8043 9.97419 41.4914C10.1503 41.1764 10.2393 40.8274 10.2393 40.4382C10.2393 40.0491 10.1503 39.7 9.97419 39.3851C9.79615 39.0702 9.55283 38.8254 9.24027 38.6489C8.92771 38.4724 8.57955 38.3821 8.19181 38.3821C7.80408 38.3821 7.45393 38.4704 7.1394 38.6489C6.82486 38.8275 6.57758 39.0722 6.39756 39.3851C6.21754 39.7 6.12852 40.0511 6.12852 40.4382C6.12852 40.8254 6.21754 41.1764 6.39756 41.4914C6.57758 41.8063 6.82486 42.051 7.1394 42.2276C7.45393 42.4041 7.80408 42.4944 8.19181 42.4944C8.57955 42.4944 8.92771 42.4061 9.24027 42.2276Z" fill="white"/>
<path d="M16.7042 37.9568V42.9176H16.2769L13.1315 38.8916V42.9176H12.6152V37.9568H13.0425L16.1938 41.9828V37.9568H16.7042Z" fill="white"/>
<path d="M19.2996 42.7832C18.9672 42.6649 18.7081 42.5084 18.5281 42.3158L18.7318 41.9126C18.9079 42.0932 19.1433 42.2376 19.4381 42.3479C19.7308 42.4582 20.0335 42.5144 20.3461 42.5144C20.7833 42.5144 21.1116 42.4322 21.3312 42.2697C21.5508 42.1072 21.6596 41.8946 21.6596 41.6358C21.6596 41.4372 21.6003 41.2787 21.4816 41.1604C21.3629 41.042 21.2165 40.9518 21.0444 40.8876C20.8723 40.8234 20.6329 40.7532 20.3243 40.6789C19.9564 40.5847 19.6636 40.4944 19.444 40.4061C19.2244 40.3179 19.0365 40.1855 18.8822 40.0049C18.7259 39.8244 18.6487 39.5817 18.6487 39.2748C18.6487 39.024 18.714 38.7974 18.8446 38.5907C18.9752 38.3861 19.175 38.2216 19.446 38.0973C19.717 37.9749 20.0513 37.9127 20.4529 37.9127C20.7318 37.9127 21.0068 37.9508 21.2739 38.0291C21.5409 38.1073 21.7743 38.2136 21.9702 38.352L21.7961 38.7693C21.5904 38.6329 21.3728 38.5286 21.1393 38.4603C20.9059 38.3921 20.6784 38.358 20.4549 38.358C20.0256 38.358 19.7031 38.4423 19.4875 38.6088C19.2699 38.7773 19.1631 38.9919 19.1631 39.2567C19.1631 39.4553 19.2224 39.6138 19.3411 39.7341C19.4598 39.8545 19.6082 39.9468 19.7882 40.011C19.9682 40.0752 20.2096 40.1454 20.5122 40.2196C20.8703 40.3098 21.1611 40.3981 21.3827 40.4844C21.6042 40.5726 21.7922 40.705 21.9445 40.8815C22.0968 41.0581 22.1759 41.2988 22.1759 41.6017C22.1759 41.8524 22.1087 42.0791 21.9761 42.2857C21.8436 42.4903 21.6398 42.6548 21.3649 42.7752C21.0899 42.8955 20.7516 42.9557 20.352 42.9557C19.988 42.9557 19.6398 42.8975 19.3075 42.7792L19.2996 42.7832Z" fill="white"/>
<path d="M24.4825 42.4061C24.1284 42.037 23.9504 41.5014 23.9504 40.7973V37.9548H24.4667V40.7752C24.4667 41.3509 24.5953 41.7822 24.8505 42.0651C25.1057 42.3479 25.4776 42.4903 25.9622 42.4903C26.4469 42.4903 26.8247 42.3479 27.0799 42.0651C27.3351 41.7822 27.4637 41.3509 27.4637 40.7752V37.9548H27.9662V40.7973C27.9662 41.5014 27.7901 42.037 27.438 42.4061C27.0859 42.7752 26.5933 42.9597 25.9603 42.9597C25.3272 42.9597 24.8327 42.7752 24.4786 42.4061H24.4825Z" fill="white"/>
<path d="M30.2273 37.9568H30.7436V42.4643H33.4835V42.9176H30.2273V37.9568Z" fill="white"/>
<path d="M35.5388 38.4102H33.8198V37.9568H37.7762V38.4102H36.0571V42.9176H35.5388V38.4102Z" fill="white"/>
<path d="M40.0512 42.6308C39.6575 42.4101 39.3509 42.1092 39.1293 41.7281C38.9078 41.3449 38.797 40.9157 38.797 40.4382C38.797 39.9608 38.9078 39.5315 39.1293 39.1484C39.3509 38.7653 39.6575 38.4644 40.0512 38.2457C40.4449 38.0271 40.884 37.9167 41.3687 37.9167C41.8534 37.9167 42.2905 38.0251 42.6783 38.2417C43.068 38.4584 43.3746 38.7613 43.5982 39.1444C43.8217 39.5295 43.9345 39.9608 43.9345 40.4382C43.9345 40.9157 43.8217 41.3469 43.5982 41.7321C43.3746 42.1172 43.068 42.4181 42.6783 42.6348C42.2886 42.8514 41.8534 42.9597 41.3687 42.9597C40.884 42.9597 40.4449 42.8494 40.0512 42.6308ZM42.4172 42.2276C42.7297 42.051 42.973 41.8043 43.1511 41.4914C43.3271 41.1764 43.4162 40.8274 43.4162 40.4382C43.4162 40.0491 43.3271 39.7 43.1511 39.3851C42.973 39.0702 42.7297 38.8254 42.4172 38.6489C42.1046 38.4724 41.7564 38.3821 41.3687 38.3821C40.981 38.3821 40.6308 38.4704 40.3163 38.6489C40.0017 38.8275 39.7545 39.0722 39.5744 39.3851C39.3944 39.7 39.3054 40.0511 39.3054 40.4382C39.3054 40.8254 39.3944 41.1764 39.5744 41.4914C39.7545 41.8063 40.0017 42.051 40.3163 42.2276C40.6308 42.4041 40.981 42.4944 41.3687 42.4944C41.7564 42.4944 42.1046 42.4061 42.4172 42.2276Z" fill="white"/>
<path d="M49.1333 42.9176L48.0156 41.3229C47.8889 41.3369 47.7584 41.3449 47.6239 41.3449H46.3103V42.9176H45.794V37.9568H47.6258C48.251 37.9568 48.7396 38.1073 49.0937 38.4102C49.4478 38.7131 49.6258 39.1283 49.6258 39.6579C49.6258 40.0451 49.5289 40.372 49.335 40.6388C49.1412 40.9056 48.8662 41.0982 48.5062 41.2165L49.701 42.9176H49.1352H49.1333ZM48.7218 40.5726C48.977 40.356 49.1056 40.0511 49.1056 39.6579C49.1056 39.2647 48.977 38.9478 48.7218 38.7332C48.4646 38.5185 48.0947 38.4102 47.61 38.4102H46.3103V40.8976H47.61C48.0947 40.8976 48.4646 40.7893 48.7218 40.5706V40.5726Z" fill="white"/>
<path d="M54.6129 41.5917H51.8869L51.2994 42.9176H50.7613L52.9987 37.9568H53.509L55.7464 42.9176H55.2004L54.6129 41.5917ZM54.425 41.1664L53.2499 38.5025L52.0748 41.1664H54.423H54.425Z" fill="white"/>
<path d="M36.3974 71.4504C36.7515 71.7533 36.9296 72.1686 36.9296 72.6981C36.9296 73.2277 36.7515 73.6429 36.3974 73.9418C36.0433 74.2407 35.5547 74.3912 34.9296 74.3912H33.616V75.9578H33.0997V70.9971H34.9316C35.5567 70.9971 36.0453 71.1475 36.3994 71.4504H36.3974ZM36.0275 73.6088C36.2827 73.3942 36.4113 73.0913 36.4113 72.6981C36.4113 72.305 36.2827 71.988 36.0275 71.7734C35.7703 71.5587 35.4004 71.4504 34.9157 71.4504H33.616V73.9318H34.9157C35.4004 73.9318 35.7703 73.8235 36.0275 73.6088Z" fill="white"/>
<path d="M40.0037 70.9971H40.52V75.5045H43.2599V75.9578H40.0037V70.9971Z" fill="white"/>
<path d="M49.159 74.6319H46.433L45.8455 75.9578H45.3074L47.5447 70.9971H48.0551L50.2925 75.9578H49.7465L49.159 74.6319ZM48.9711 74.2066L47.796 71.5427L46.6209 74.2066H48.9691H48.9711Z" fill="white"/>
<path d="M57.1491 70.9971V75.9578H56.7218L53.5764 71.9319V75.9578H53.0601V70.9971H53.4874L56.6387 75.023V70.9971H57.1491Z" fill="white"/>
<path d="M61.5209 75.671C61.1273 75.4523 60.8206 75.1494 60.5991 74.7683C60.3775 74.3852 60.2667 73.9559 60.2667 73.4785C60.2667 73.001 60.3775 72.5718 60.5991 72.1886C60.8206 71.8055 61.1273 71.5046 61.5209 71.2859C61.9146 71.0653 62.3538 70.957 62.8384 70.957C63.3231 70.957 63.7603 71.0653 64.148 71.2819C64.5357 71.4986 64.8443 71.7995 65.0679 72.1846C65.2914 72.5698 65.4042 73.001 65.4042 73.4785C65.4042 73.9559 65.2914 74.3872 65.0679 74.7723C64.8443 75.1575 64.5377 75.4584 64.148 75.675C63.7583 75.8916 63.3231 76 62.8384 76C62.3538 76 61.9146 75.8896 61.5209 75.671ZM63.8869 75.2678C64.1994 75.0913 64.4428 74.8445 64.6208 74.5316C64.7969 74.2167 64.8859 73.8676 64.8859 73.4785C64.8859 73.0893 64.7969 72.7403 64.6208 72.4253C64.4428 72.1104 64.1994 71.8657 63.8869 71.6891C63.5743 71.5126 63.2262 71.4223 62.8384 71.4223C62.4507 71.4223 62.1005 71.5106 61.786 71.6891C61.4715 71.8657 61.2242 72.1124 61.0442 72.4253C60.8641 72.7403 60.7751 73.0913 60.7751 73.4785C60.7751 73.8656 60.8641 74.2167 61.0442 74.5316C61.2242 74.8465 61.4715 75.0913 61.786 75.2678C62.1005 75.4443 62.4507 75.5346 62.8384 75.5346C63.2262 75.5346 63.5743 75.4463 63.8869 75.2678Z" fill="white"/>
<path d="M68.8245 75.8234C68.4922 75.7051 68.2331 75.5486 68.053 75.356L68.2568 74.9528C68.4329 75.1334 68.6683 75.2778 68.963 75.3881C69.2558 75.4985 69.5585 75.5546 69.871 75.5546C70.3082 75.5546 70.6366 75.4724 70.8562 75.3099C71.0758 75.1474 71.1846 74.9348 71.1846 74.676C71.1846 74.4774 71.1252 74.319 71.0065 74.2006C70.8878 74.0822 70.7415 73.992 70.5693 73.9278C70.3972 73.8636 70.1579 73.7934 69.8493 73.7192C69.4813 73.6249 69.1885 73.5346 68.969 73.4464C68.7494 73.3581 68.5614 73.2257 68.4071 73.0452C68.2509 72.8666 68.1737 72.6219 68.1737 72.315C68.1737 72.0642 68.239 71.8376 68.3696 71.631C68.5001 71.4243 68.6999 71.2619 68.9709 71.1375C69.242 71.0151 69.5763 70.9529 69.9779 70.9529C70.2568 70.9529 70.5318 70.9911 70.7988 71.0693C71.0659 71.1475 71.2993 71.2538 71.4952 71.3922L71.3211 71.8095C71.1153 71.6731 70.8977 71.5688 70.6643 71.5006C70.4309 71.4324 70.2034 71.3983 69.9798 71.3983C69.5506 71.3983 69.2281 71.4825 69.0125 71.649C68.7949 71.8175 68.688 72.0322 68.688 72.2969C68.688 72.4955 68.7474 72.654 68.8661 72.7744C68.9848 72.8947 69.1332 72.987 69.3132 73.0512C69.4932 73.1154 69.7345 73.1856 70.0372 73.2598C70.3953 73.3501 70.6861 73.4383 70.9076 73.5246C71.1292 73.6129 71.3171 73.7452 71.4694 73.9218C71.6237 74.0983 71.7009 74.339 71.7009 74.6419C71.7009 74.8927 71.6336 75.1193 71.5011 75.3259C71.3685 75.5306 71.1648 75.695 70.8898 75.8154C70.6148 75.9358 70.2766 75.9959 69.877 75.9959C69.513 75.9959 69.1648 75.9378 68.8325 75.8194L68.8245 75.8234Z" fill="white"/>
<path d="M78.5634 70.9971H80.5554C81.0717 70.9971 81.5287 71.1014 81.9244 71.312C82.32 71.5226 82.6286 71.8155 82.8462 72.1906C83.0658 72.5657 83.1746 72.995 83.1746 73.4764C83.1746 73.9579 83.0658 74.3871 82.8462 74.7623C82.6266 75.1374 82.32 75.4302 81.9244 75.6409C81.5287 75.8515 81.0717 75.9558 80.5554 75.9558H78.5634V70.9951V70.9971ZM80.5277 75.5045C80.957 75.5045 81.3309 75.4182 81.6533 75.2457C81.9738 75.0732 82.2231 74.8345 82.4011 74.5296C82.5772 74.2247 82.6662 73.8736 82.6662 73.4764C82.6662 73.0793 82.5772 72.7282 82.4011 72.4233C82.2231 72.1184 81.9738 71.8797 81.6533 71.7072C81.3329 71.5347 80.957 71.4484 80.5277 71.4484H79.0816V75.5025H80.5277V75.5045Z" fill="white"/>
<path d="M89.7522 75.5045V75.9578H86.2923V70.9971H89.6474V71.4504H86.8106V73.2157H89.3407V73.663H86.8106V75.5065H89.7522V75.5045Z" fill="white"/>
<path d="M97.0163 75.8234C96.6839 75.7051 96.4248 75.5486 96.2448 75.356L96.4485 74.9528C96.6246 75.1334 96.86 75.2778 97.1547 75.3881C97.4475 75.4985 97.7502 75.5546 98.0627 75.5546C98.4999 75.5546 98.8283 75.4724 99.0479 75.3099C99.2675 75.1474 99.3763 74.9348 99.3763 74.676C99.3763 74.4774 99.3169 74.319 99.1982 74.2006C99.0796 74.0822 98.9332 73.992 98.7611 73.9278C98.589 73.8636 98.3496 73.7934 98.041 73.7192C97.673 73.6249 97.3803 73.5346 97.1607 73.4464C96.9411 73.3581 96.7532 73.2257 96.5989 73.0452C96.4426 72.8666 96.3654 72.6219 96.3654 72.315C96.3654 72.0642 96.4307 71.8376 96.5613 71.631C96.6918 71.4243 96.8916 71.2619 97.1627 71.1375C97.4337 71.0151 97.768 70.9529 98.1696 70.9529C98.4485 70.9529 98.7235 70.9911 98.9905 71.0693C99.2576 71.1475 99.491 71.2538 99.6869 71.3922L99.5128 71.8095C99.3071 71.6731 99.0894 71.5688 98.856 71.5006C98.6226 71.4324 98.3951 71.3983 98.1715 71.3983C97.7423 71.3983 97.4198 71.4825 97.2042 71.649C96.9866 71.8175 96.8798 72.0322 96.8798 72.2969C96.8798 72.4955 96.9391 72.654 97.0578 72.7744C97.1765 72.8947 97.3249 72.987 97.5049 73.0512C97.6849 73.1154 97.9262 73.1856 98.2289 73.2598C98.587 73.3501 98.8778 73.4383 99.0993 73.5246C99.3209 73.6129 99.5088 73.7452 99.6612 73.9218C99.8155 74.0983 99.8926 74.339 99.8926 74.6419C99.8926 74.8927 99.8253 75.1193 99.6928 75.3259C99.5603 75.5306 99.3565 75.695 99.0815 75.8154C98.8066 75.9358 98.4683 75.9959 98.0687 75.9959C97.7047 75.9959 97.3565 75.9378 97.0242 75.8194L97.0163 75.8234Z" fill="white"/>
<path d="M106.037 74.6319H103.311L102.723 75.9578H102.185L104.423 70.9971H104.933L107.17 75.9578H106.625L106.037 74.6319ZM105.849 74.2066L104.674 71.5427L103.499 74.2066H105.847H105.849Z" fill="white"/>
<path d="M110.32 75.4463C109.966 75.0772 109.788 74.5416 109.788 73.8375V70.9951H110.304V73.8155C110.304 74.3912 110.433 74.8225 110.688 75.1053C110.943 75.3881 111.315 75.5306 111.8 75.5306C112.284 75.5306 112.662 75.3881 112.917 75.1053C113.172 74.8225 113.301 74.3912 113.301 73.8155V70.9951H113.804V73.8375C113.804 74.5416 113.627 75.0772 113.275 75.4463C112.923 75.8154 112.431 76 111.798 76C111.165 76 110.67 75.8154 110.316 75.4463H110.32ZM112.304 69.7133H112.969L111.837 70.5919H111.349L112.306 69.7133H112.304Z" fill="white"/>
<path d="M117.323 70.9971H119.315C119.831 70.9971 120.288 71.1014 120.684 71.312C121.079 71.5226 121.388 71.8155 121.606 72.1906C121.825 72.5657 121.934 72.995 121.934 73.4764C121.934 73.9579 121.825 74.3871 121.606 74.7623C121.386 75.1374 121.079 75.4302 120.684 75.6409C120.288 75.8515 119.831 75.9558 119.315 75.9558H117.323V70.9951V70.9971ZM119.287 75.5045C119.716 75.5045 120.09 75.4182 120.413 75.2457C120.733 75.0732 120.982 74.8345 121.161 74.5296C121.337 74.2247 121.426 73.8736 121.426 73.4764C121.426 73.0793 121.337 72.7282 121.161 72.4233C120.982 72.1184 120.733 71.8797 120.413 71.7072C120.092 71.5347 119.716 71.4484 119.287 71.4484H117.841V75.5025H119.287V75.5045Z" fill="white"/>
<path d="M128.514 75.5045V75.9578H125.054V70.9971H128.409V71.4504H125.572V73.2157H128.102V73.663H125.572V75.5065H128.514V75.5045Z" fill="white"/>
<path d="M85.1706 32.631C85.1014 32.631 85.0321 32.625 84.9609 32.613C84.4723 32.5247 84.0905 32.1375 84.0015 31.6421C82.5613 23.5641 80.5337 12.437 79.323 6.25257C77.96 12.4991 75.7187 23.8649 74.229 31.6561C74.1222 32.2158 73.6435 32.623 73.0797 32.631C72.5199 32.6451 72.0273 32.2459 71.9046 31.6902L68.5397 16.4068C68.0313 17.0045 67.4437 17.6886 66.8562 18.3726C63.242 22.5611 63.1589 22.5611 62.51 22.5611H50.5596C49.9048 22.5611 49.3726 22.0215 49.3726 21.3575C49.3726 20.6935 49.9048 20.1539 50.5596 20.1539H62.0768C62.965 19.2472 65.78 15.9895 68.2805 13.0227C68.5733 12.6757 69.0322 12.5252 69.4694 12.6356C69.9066 12.7459 70.2429 13.0969 70.3418 13.5423L72.9887 25.562C73.5149 22.86 74.1776 19.4859 74.8502 16.1299C75.7305 11.7469 76.4545 8.2465 77.0085 5.72501C77.3388 4.22053 77.6098 3.04704 77.8156 2.24265C78.1479 0.938773 78.3319 0.222643 79.141 0.0340824C79.6059 -0.0742397 80.0905 0.106297 80.3754 0.493448C80.6207 0.824433 80.8324 1.11129 83.6375 16.3366C84.4505 20.7517 85.2497 25.1728 85.7641 28.0333L89.7304 21.2171C89.9441 20.85 90.3318 20.6253 90.7532 20.6253H90.7571L112.626 20.6975C113.281 20.6995 113.811 21.2411 113.809 21.9051C113.807 22.5691 113.275 23.1047 112.622 23.1047H112.619L91.4278 23.0345L86.1874 32.0393C85.9718 32.4104 85.5801 32.631 85.1647 32.631H85.1706Z" fill="url(#paint12_linear_54_47)"/>
</g>
<defs>
<linearGradient id="paint0_linear_54_47" x1="0" y1="56.2291" x2="12.9079" y2="56.2291" gradientUnits="userSpaceOnUse">
<stop stop-color="#9B7114"/>
<stop offset="0.26" stop-color="#D0A851"/>
<stop offset="0.53" stop-color="#714110"/>
<stop offset="1" stop-color="#E7BA4E"/>
</linearGradient>
<linearGradient id="paint1_linear_54_47" x1="16.5894" y1="59.3284" x2="27.1116" y2="59.3284" gradientUnits="userSpaceOnUse">
<stop stop-color="#9B7114"/>
<stop offset="0.26" stop-color="#D0A851"/>
<stop offset="0.53" stop-color="#714110"/>
<stop offset="1" stop-color="#E7BA4E"/>
</linearGradient>
<linearGradient id="paint2_linear_54_47" x1="30.0374" y1="57.5812" x2="35.1294" y2="57.5812" gradientUnits="userSpaceOnUse">
<stop stop-color="#9B7114"/>
<stop offset="0.26" stop-color="#D0A851"/>
<stop offset="0.53" stop-color="#714110"/>
<stop offset="1" stop-color="#E7BA4E"/>
</linearGradient>
<linearGradient id="paint3_linear_54_47" x1="38.0749" y1="55.8861" x2="48.0155" y2="55.8861" gradientUnits="userSpaceOnUse">
<stop stop-color="#9B7114"/>
<stop offset="0.26" stop-color="#D0A851"/>
<stop offset="0.53" stop-color="#714110"/>
<stop offset="1" stop-color="#E7BA4E"/>
</linearGradient>
<linearGradient id="paint4_linear_54_47" x1="50.6208" y1="59.3284" x2="62.7019" y2="59.3284" gradientUnits="userSpaceOnUse">
<stop stop-color="#9B7114"/>
<stop offset="0.26" stop-color="#D0A851"/>
<stop offset="0.53" stop-color="#714110"/>
<stop offset="1" stop-color="#E7BA4E"/>
</linearGradient>
<linearGradient id="paint5_linear_54_47" x1="65.2617" y1="58.4357" x2="69.8888" y2="58.4357" gradientUnits="userSpaceOnUse">
<stop stop-color="#9B7114"/>
<stop offset="0.26" stop-color="#D0A851"/>
<stop offset="0.53" stop-color="#714110"/>
<stop offset="1" stop-color="#E7BA4E"/>
</linearGradient>
<linearGradient id="paint6_linear_54_47" x1="73.4219" y1="59.3284" x2="83.3645" y2="59.3284" gradientUnits="userSpaceOnUse">
<stop stop-color="#9B7114"/>
<stop offset="0.26" stop-color="#D0A851"/>
<stop offset="0.53" stop-color="#714110"/>
<stop offset="1" stop-color="#E7BA4E"/>
</linearGradient>
<linearGradient id="paint7_linear_54_47" x1="95.8095" y1="56.2251" x2="106.806" y2="56.2251" gradientUnits="userSpaceOnUse">
<stop stop-color="#9B7114"/>
<stop offset="0.26" stop-color="#D0A851"/>
<stop offset="0.53" stop-color="#714110"/>
<stop offset="1" stop-color="#E7BA4E"/>
</linearGradient>
<linearGradient id="paint8_linear_54_47" x1="110.5" y1="59.3284" x2="121.604" y2="59.3284" gradientUnits="userSpaceOnUse">
<stop stop-color="#9B7114"/>
<stop offset="0.26" stop-color="#D0A851"/>
<stop offset="0.53" stop-color="#714110"/>
<stop offset="1" stop-color="#E7BA4E"/>
</linearGradient>
<linearGradient id="paint9_linear_54_47" x1="124.142" y1="59.3284" x2="135.514" y2="59.3284" gradientUnits="userSpaceOnUse">
<stop stop-color="#9B7114"/>
<stop offset="0.26" stop-color="#D0A851"/>
<stop offset="0.53" stop-color="#714110"/>
<stop offset="1" stop-color="#E7BA4E"/>
</linearGradient>
<linearGradient id="paint10_linear_54_47" x1="138.832" y1="59.3284" x2="147.619" y2="59.3284" gradientUnits="userSpaceOnUse">
<stop stop-color="#9B7114"/>
<stop offset="0.26" stop-color="#D0A851"/>
<stop offset="0.53" stop-color="#714110"/>
<stop offset="1" stop-color="#E7BA4E"/>
</linearGradient>
<linearGradient id="paint11_linear_54_47" x1="151.059" y1="59.3284" x2="161" y2="59.3284" gradientUnits="userSpaceOnUse">
<stop stop-color="#9B7114"/>
<stop offset="0.26" stop-color="#D0A851"/>
<stop offset="0.53" stop-color="#714110"/>
<stop offset="1" stop-color="#E7BA4E"/>
</linearGradient>
<linearGradient id="paint12_linear_54_47" x1="49.3766" y1="16.3145" x2="113.815" y2="16.3145" gradientUnits="userSpaceOnUse">
<stop stop-color="#9B7114"/>
<stop offset="0.26" stop-color="#D0A851"/>
<stop offset="0.53" stop-color="#714110"/>
<stop offset="1" stop-color="#E7BA4E"/>
</linearGradient>
<clipPath id="clip0_54_47">
<rect width="161" height="76" fill="white"/>
</clipPath>
</defs>
</svg>
