<svg width="45" height="45" viewBox="0 0 45 45" fill="none" xmlns="http://www.w3.org/2000/svg">
<path fill-rule="evenodd" clip-rule="evenodd" d="M22.8284 44.671C35.0734 44.671 44.9998 34.7445 44.9998 22.4996C44.9998 10.2546 35.0734 0.328125 22.8284 0.328125C10.5835 0.328125 0.656982 10.2546 0.656982 22.4996C0.656982 34.7445 10.5835 44.671 22.8284 44.671ZM34.3548 30.7165C34.6621 29.9745 34.8203 29.1793 34.8203 28.3762V16.6225C34.8203 15.8194 34.6621 15.0242 34.3548 14.2822C34.0474 13.5402 33.597 12.866 33.0291 12.2982C32.4612 11.7303 31.787 11.2798 31.045 10.9725C30.3031 10.6651 29.5078 10.5069 28.7047 10.5069H16.952C15.33 10.5069 13.7745 11.1513 12.6276 12.2982C11.4807 13.4451 10.8364 15.0006 10.8364 16.6225V28.3762C10.8364 29.9981 11.4807 31.5537 12.6276 32.7006C13.7745 33.8475 15.33 34.4918 16.952 34.4918H28.7047C29.5078 34.4918 30.3031 34.3336 31.045 34.0263C31.787 33.7189 32.4612 33.2685 33.0291 32.7006C33.597 32.1327 34.0474 31.4585 34.3548 30.7165ZM35.0009 10.3266C36.6708 11.9964 37.609 14.2611 37.6093 16.6225V28.3753C37.6093 30.7371 36.671 33.0023 35.0009 34.6724C33.3308 36.3425 31.0657 37.2808 28.7038 37.2808H16.952C14.5904 37.2805 12.3256 36.3423 10.6558 34.6724C8.98587 33.0025 8.04763 30.7377 8.04738 28.3762V16.6244C8.04714 15.4548 8.27732 14.2967 8.72478 13.2161C9.17224 12.1355 9.82821 11.1537 10.6552 10.3267C11.4822 9.4997 12.464 8.84373 13.5446 8.39627C14.6252 7.94881 15.7833 7.71863 16.9529 7.71887H28.7047C31.0662 7.71887 33.331 8.65691 35.0009 10.3266ZM20.2802 26.5784C21.0492 27.0922 21.9533 27.3665 22.8782 27.3665C24.1185 27.3665 25.3079 26.8738 26.1849 25.9968C27.0619 25.1198 27.5545 23.9304 27.5545 22.6901C27.5545 21.7652 27.2803 20.8611 26.7664 20.0921C26.2526 19.3231 25.5223 18.7237 24.6678 18.3698C23.8133 18.0158 22.873 17.9232 21.9659 18.1037C21.0588 18.2841 20.2256 18.7295 19.5716 19.3835C18.9176 20.0375 18.4722 20.8707 18.2918 21.7778C18.1113 22.6849 18.2039 23.6252 18.5579 24.4797C18.9118 25.3342 19.5112 26.0645 20.2802 26.5784ZM18.8236 16.6201C20.0238 15.8182 21.4348 15.3902 22.8782 15.3902C24.8138 15.3902 26.6701 16.1591 28.0388 17.5277C29.4074 18.8964 30.1763 20.7527 30.1763 22.6883C30.1763 24.1317 29.7483 25.5427 28.9464 26.7429C28.1444 27.9431 27.0046 28.8785 25.6711 29.4308C24.3375 29.9832 22.8701 30.1277 21.4544 29.8461C20.0387 29.5645 18.7383 28.8695 17.7177 27.8488C16.697 26.8282 16.002 25.5278 15.7204 24.1121C15.4388 22.6964 15.5833 21.229 16.1357 19.8954C16.688 18.5619 17.6235 17.4221 18.8236 16.6201ZM29.6398 13.4543C29.9254 13.2633 30.2613 13.1612 30.605 13.161C30.8332 13.1609 31.0593 13.2058 31.2702 13.293C31.4812 13.3803 31.6728 13.5083 31.8343 13.6697C31.9957 13.831 32.1238 14.0226 32.2112 14.2335C32.2986 14.4444 32.3436 14.6704 32.3436 14.8987C32.3436 15.2424 32.2417 15.5783 32.0508 15.864C31.8599 16.1498 31.5886 16.3725 31.2711 16.504C30.9536 16.6356 30.6043 16.6701 30.2672 16.6031C29.9302 16.5361 29.6205 16.3707 29.3775 16.1278C29.1344 15.8848 28.9689 15.5753 28.9017 15.2383C28.8345 14.9013 28.8688 14.5519 29.0002 14.2344C29.1316 13.9168 29.3542 13.6454 29.6398 13.4543Z" fill="#9B7114"/>
</svg>
