<?xml version="1.0" encoding="UTF-8"?>
<svg id="Camada_2" data-name="Camada 2" xmlns="http://www.w3.org/2000/svg" xmlns:xlink="http://www.w3.org/1999/xlink" viewBox="0 0 648.41 323.81">
  <defs>
    <style>
      .cls-1 {
        fill: url(#linear-gradient);
      }
    </style>
    <linearGradient id="linear-gradient" x1="0" y1="161.9" x2="648.41" y2="161.9" gradientUnits="userSpaceOnUse">
      <stop offset="0" stop-color="#9b7114"/>
      <stop offset=".26" stop-color="#d0a851"/>
      <stop offset=".53" stop-color="#714110"/>
      <stop offset="1" stop-color="#a57c1d"/>
      <stop offset="1" stop-color="#e7ba4e"/>
    </linearGradient>
  </defs>
  <g id="Camada_1-2" data-name="Camada 1">
    <path class="cls-1" d="m360.18,323.8c-.7,0-1.4-.06-2.11-.19-4.91-.88-8.76-4.72-9.65-9.63-14.5-80.16-34.89-190.57-47.07-251.95-13.71,61.99-36.26,174.78-51.25,252.09-1.08,5.55-5.9,9.59-11.56,9.67-5.63.14-10.59-3.82-11.82-9.34l-33.85-151.66c-5.12,5.92-11.02,12.73-16.95,19.5-36.36,41.56-37.2,41.56-43.73,41.56H11.94c-6.6,0-11.94-5.35-11.94-11.94s5.35-11.94,11.94-11.94h115.89c8.94-9.01,37.27-41.32,62.42-70.77,2.94-3.44,7.57-4.93,11.96-3.83,4.39,1.09,7.79,4.57,8.77,8.99l26.62,119.28c5.3-26.81,11.96-60.29,18.74-93.61,8.85-43.5,16.15-78.24,21.71-103.24,3.32-14.94,6.06-26.57,8.13-34.57,3.35-12.93,5.2-20.05,13.33-21.92,4.67-1.07,9.55.72,12.43,4.56,2.47,3.29,4.6,6.14,32.83,157.23,8.19,43.81,16.23,87.68,21.41,116.07l39.92-67.64c2.15-3.64,6.06-5.87,10.29-5.87h.04l220.07.72c6.6.02,11.93,5.39,11.9,11.98-.02,6.58-5.37,11.9-11.94,11.9h-.04l-213.22-.7-52.74,89.36c-2.17,3.68-6.11,5.87-10.28,5.87Z"/>
  </g>
</svg>