<?xml version="1.0" encoding="UTF-8"?>
<svg id="Camada_2" data-name="Camada 2" xmlns="http://www.w3.org/2000/svg" xmlns:xlink="http://www.w3.org/1999/xlink" viewBox="0 0 4.19 4.19">
  <defs>
    <style>
      .cls-1 {
        fill: url(#Gradiente_sem_nome_6);
      }

      .cls-2 {
        fill: #fff;
        fill-rule: evenodd;
      }
    </style>
    <linearGradient id="Gradiente_sem_nome_6" data-name="Gradiente sem nome 6" x1="2.05" y1="-1.67" x2="2.13" y2="4.9" gradientUnits="userSpaceOnUse">
      <stop offset=".13" stop-color="#9b7114"/>
      <stop offset=".65" stop-color="#7f5b0d"/>
      <stop offset="1" stop-color="#9b7114"/>
    </linearGradient>
  </defs>
  <g id="Layer_1" data-name="Layer 1">
    <path class="cls-1" d="m4.19,2.09c0,1.16-.94,2.1-2.1,2.1S0,3.25,0,2.09.94,0,2.09,0s2.1.94,2.1,2.09Z"/>
    <g>
      <path class="cls-2" d="m3.34,1.8c-.14-.58-.64-.98-1.24-.98-.08,0-.17,0-.24.03-.85.17-1.28,1.1-.87,1.86.01.02.01.04.01.06-.06.19-.11.4-.17.59t.02.03c.21-.06.41-.11.62-.16.02,0,.03,0,.05,0,.26.13.54.17.84.12.7-.13,1.16-.85.99-1.54Zm-1.06,1.33c-.06.01-.12.02-.15.01-.23,0-.41-.05-.57-.15-.02-.01-.04-.02-.06-.01-.12.03-.23.06-.34.09-.02,0-.03,0-.02-.02.03-.11.06-.21.09-.32,0-.03,0-.05-.01-.08-.23-.38-.22-.84.04-1.19.27-.36.64-.51,1.08-.42.43.09.71.37.81.8.14.59-.26,1.18-.85,1.27Z"/>
      <path class="cls-2" d="m2.43,2.69s-.09,0-.13-.02c-.29-.08-.51-.26-.69-.51-.07-.09-.13-.19-.15-.3-.03-.13.01-.25.11-.34.03-.03.13-.05.17-.03.01.01.02.02.03.04.04.09.07.17.11.26,0,.02,0,.04,0,.05-.02.04-.05.07-.08.1-.02.02-.02.05,0,.07.1.17.25.3.44.37.03.01.05,0,.07-.01.03-.04.06-.08.1-.12.02-.03.04-.03.07-.02.06.03.12.06.18.09.02,0,.03.01.04.02.06.03.06.04.06.1,0,.13-.11.2-.23.23-.03,0-.06,0-.08,0Z"/>
    </g>
  </g>
</svg>